<?xml version="1.0" standalone="no"?>
<!DOCTYPE svg PUBLIC "-//W3C//DTD SVG 20010904//EN"
 "http://www.w3.org/TR/2001/REC-SVG-20010904/DTD/svg10.dtd">
<svg version="1.0" xmlns="http://www.w3.org/2000/svg"
 width="332.000000pt" height="379.000000pt" viewBox="0 0 332.000000 379.000000"
 preserveAspectRatio="xMidYMid meet">
<metadata>
Created by potrace 1.13, written by Peter Selinger 2001-2015
</metadata>
<g transform="translate(0.000000,379.000000) scale(0.100000,-0.100000)"
fill="#000000" stroke="none">
<path d="M20 1885 l0 -1875 1643 2 1642 3 0 1870 0 1870 -1642 3 -1643 2 0
-1875z m3160 0 l0 -1745 -1515 0 -1515 0 0 1745 0 1745 1515 0 1515 0 0 -1745z"/>
<path d="M2018 3470 l-97 -5 -138 -202 c-76 -111 -259 -381 -408 -600 -707
-1041 -662 -970 -672 -1052 -6 -56 8 -133 38 -196 l21 -45 104 0 c59 0 104 4
104 10 0 5 -11 25 -24 45 -36 52 -54 148 -40 203 l6 22 709 -2 c783 -3 730 -8
689 60 l-20 32 -670 0 c-445 0 -669 3 -665 10 4 7 233 10 654 10 356 0 650 3
653 6 3 3 -15 36 -41 74 l-46 69 -555 3 -555 3 548 2 c301 2 547 6 547 9 0 3
-14 25 -30 50 l-31 44 -478 2 -478 3 236 347 c130 190 308 453 396 582 88 130
202 298 253 373 51 75 91 139 90 142 -2 3 -47 4 -100 1z"/>
<path d="M1179 3113 c-745 -1098 -869 -1283 -894 -1333 -51 -100 -52 -239 -3
-352 l20 -48 85 0 c73 0 84 2 79 15 -28 74 -38 135 -34 212 4 73 9 93 44 161
22 42 281 430 575 862 295 432 544 797 554 813 l17 27 -100 0 -100 0 -243
-357z"/>
<path d="M1508 3267 c-75 -111 -332 -488 -570 -838 -239 -350 -445 -661 -458
-690 -34 -80 -39 -196 -11 -288 l22 -71 119 0 c66 0 120 2 120 5 0 3 -10 34
-21 68 -13 37 -22 88 -22 127 -1 77 19 127 91 234 27 39 217 319 422 621 205
303 444 654 530 780 85 127 159 236 163 243 6 9 -20 12 -120 12 l-128 -1 -137
-202z"/>
<path d="M1992 3164 c-24 -36 -41 -72 -38 -80 3 -7 178 -267 389 -576 474
-695 493 -724 518 -795 27 -76 27 -186 1 -270 l-20 -63 84 0 85 0 19 45 c50
117 47 259 -8 365 -16 30 -206 316 -423 635 -217 319 -428 630 -469 692 -41
62 -79 112 -85 112 -5 1 -29 -29 -53 -65z"/>
<path d="M1871 2979 c-46 -69 -59 -94 -52 -107 5 -9 67 -102 138 -207 71 -104
192 -282 268 -395 76 -113 184 -270 239 -350 146 -212 161 -245 160 -344 -1
-57 -7 -97 -23 -136 -11 -30 -21 -56 -21 -57 0 -2 53 -3 119 -3 l119 0 10 28
c26 70 32 101 32 176 -1 135 10 117 -515 886 -84 124 -211 309 -281 413 -70
103 -128 187 -129 187 -2 0 -30 -41 -64 -91z"/>
<path d="M1756 2814 c-19 -27 -40 -59 -47 -71 -10 -19 20 -67 313 -500 179
-263 338 -503 354 -533 49 -94 45 -204 -12 -292 l-24 -38 105 0 105 0 19 39
c44 84 46 214 5 293 -18 36 -748 1115 -769 1137 -11 11 -19 5 -49 -35z"/>
<path d="M250 960 l0 -350 1410 0 1410 0 0 350 0 350 -1410 0 -1410 0 0 -350z
m904 0 c75 -143 136 -262 136 -265 0 -3 -54 -5 -121 -5 l-120 0 -10 30 -11 30
-129 0 -128 0 -15 -29 -15 -29 -111 -1 c-61 -1 -114 1 -119 4 -5 2 52 122 127
265 l137 260 121 0 122 0 136 -260z m396 75 l0 -185 105 0 106 0 -3 -77 -3
-78 -219 -3 c-155 -2 -222 1 -227 9 -8 14 -12 495 -4 509 4 6 58 10 126 10
l119 0 0 -185z m725 158 c53 -28 110 -89 131 -138 23 -55 22 -140 -3 -195 -29
-66 -67 -106 -131 -137 -57 -28 -58 -28 -262 -28 l-205 0 -3 263 -2 263 217
-3 c201 -3 221 -5 258 -25z m443 -235 l-3 -263 -117 -3 -118 -3 0 266 0 265
120 0 120 0 -2 -262z"/>
<path d="M2045 957 l0 -112 30 1 c17 1 38 2 48 3 11 1 32 15 48 32 23 25 29
40 29 76 0 38 -5 50 -34 79 -28 28 -41 34 -77 34 l-44 0 0 -113z"/>
<path d="M997 483 c-4 -3 -7 -60 -7 -125 l0 -118 35 0 35 0 0 67 0 66 30 -41
c24 -33 36 -42 60 -42 24 0 36 9 60 42 l30 41 0 -66 0 -67 70 0 c65 0 71 2 82
25 10 22 17 25 65 25 47 0 55 -3 65 -25 10 -23 16 -25 80 -25 l68 0 0 30 c0
25 4 30 24 30 17 0 31 -10 43 -30 14 -25 24 -30 56 -30 l39 0 -20 32 c-20 31
-20 31 0 58 38 52 18 129 -39 151 -15 5 -58 9 -97 7 l-71 -3 0 -118 c0 -64 -2
-117 -5 -117 -3 0 -31 54 -62 120 -51 109 -59 120 -83 120 -24 0 -32 -11 -83
-120 -31 -66 -59 -120 -62 -120 -3 0 -5 53 -5 117 l0 118 -35 0 c-30 0 -39 -6
-73 -55 -21 -30 -41 -56 -45 -57 -4 -1 -26 24 -49 57 -35 49 -48 60 -71 60
-16 0 -32 -3 -35 -7z"/>
<path d="M1857 484 c-4 -4 -7 -61 -7 -126 l0 -118 35 0 c33 0 35 2 35 33 0 64
15 67 67 14 43 -42 54 -47 93 -47 l44 0 -67 68 -67 68 50 49 c27 27 50 53 50
57 0 4 -17 8 -38 8 -32 0 -45 -7 -82 -46 l-45 -45 -5 43 c-4 37 -9 43 -30 46
-14 2 -29 0 -33 -4z"/>
<path d="M2130 456 c0 -33 2 -35 33 -33 l32 2 3 -92 3 -93 29 0 30 0 0 90 0
90 35 0 c33 0 35 2 35 35 l0 35 -100 0 -100 0 0 -34z"/>
</g>
</svg>
