<?xml version="1.0" encoding="utf-8"?>
<!-- Generator: Adobe Illustrator 17.0.0, SVG Export Plug-In . SVG Version: 6.00 Build 0)  -->
<!DOCTYPE svg PUBLIC "-//W3C//DTD SVG 1.1//EN" "http://www.w3.org/Graphics/SVG/1.1/DTD/svg11.dtd">
<svg version="1.1" id="Layer_1" xmlns="http://www.w3.org/2000/svg" xmlns:xlink="http://www.w3.org/1999/xlink" x="0px" y="0px"
	 width="245.268px" height="478.142px" viewBox="0 0 245.268 478.142" enable-background="new 0 0 245.268 478.142"
	 xml:space="preserve">
<path d="M113.373,76.136c-14.577,0.757-26.797,1.532-36.656,2.323c-9.963,0.799-17.463,1.614-22.5,2.441
	c-0.791,0.272-1.234,1.292-1.328,3.059h0.001v6.188v6.188h-0.001c0.094,1.767,0.537,2.787,1.328,3.059
	c5.037,0.827,12.537,1.642,22.5,2.441c9.859,0.791,22.079,1.566,36.656,2.323V90.269V76.136z M131.895,104.16
	c14.577-0.757,26.796-1.532,36.656-2.323c9.963-0.799,17.463-1.614,22.5-2.441c0.791-0.272,1.234-1.292,1.328-3.059h-0.001v-6.188
	V83.96h0.001c-0.094-1.767-0.537-2.787-1.328-3.059c-5.037-0.827-12.537-1.642-22.5-2.441c-9.859-0.791-22.079-1.566-36.656-2.323
	v14.132L131.895,104.16L131.895,104.16z M113.373,105.696c-14.68-0.762-26.936-1.658-36.766-2.447
	c-10.016-0.804-17.571-1.626-22.664-2.465l-0.041-0.007l-0.05-0.015c-1.458-0.444-2.25-1.908-2.376-4.392l-0.003-0.033v-6.188V83.96
	l0.003-0.033c0.126-2.484,0.918-3.948,2.376-4.392l0.05-0.016l0.041-0.007c5.093-0.839,12.648-1.662,22.664-2.465
	c9.98-0.801,22.461-1.589,37.439-2.362c1.326-0.068,2.736-0.14,4.216-0.214c3.736-0.186,5.01-0.186,8.746,0
	c1.48,0.074,2.889,0.145,4.216,0.214c14.978,0.773,27.459,1.561,37.439,2.362c10.016,0.804,17.571,1.626,22.664,2.465l0.041,0.007
	l0.05,0.016c1.458,0.444,2.251,1.908,2.376,4.392l0.003,0.033v6.188v6.188l-0.003,0.033c-0.125,2.484-0.917,3.948-2.376,4.392
	l-0.05,0.015l-0.041,0.007c-5.093,0.839-12.648,1.662-22.664,2.465c-9.83,0.789-22.087,1.685-36.766,2.447l-0.673,0.035
	c-1.315,0.068-2.712,0.139-4.169,0.211c-4.203,0.207-4.636,0.207-8.839,0c-1.457-0.073-2.855-0.143-4.169-0.211L113.373,105.696z
	 M114.79,90.269v13.965c1.204,0.062,2.381,0.122,3.537,0.179c3.062,0.152,5.551,0.152,8.613,0c1.156-0.058,2.333-0.117,3.537-0.179
	V90.269V76.184c-1.2-0.062-2.385-0.122-3.531-0.179c-3.673-0.183-4.952-0.183-8.626,0c-1.146,0.057-2.331,0.117-3.531,0.179
	L114.79,90.269L114.79,90.269z M214.35,471.013c9.353-0.877,18.714-1.889,28.083-3.036V265.939h-0.006l-0.01,0.001l-0.01,0.001
	h-0.01c-0.402,0.028-0.83,0.051-1.286,0.067c-0.473,0.017-0.904,0.025-1.293,0.025c-9.612,0-18.317-3.749-24.62-9.809
	c-0.288-0.277-0.571-0.559-0.849-0.846L214.35,471.013L214.35,471.013z M2.835,265.939v202.037
	c9.369,1.147,18.73,2.159,28.083,3.036V255.379c-0.278,0.287-0.561,0.569-0.849,0.846c-6.303,6.06-15.009,9.809-24.62,9.809
	c-0.339,0-0.71-0.007-1.114-0.019H4.331l-0.175-0.006c-0.455-0.016-0.884-0.038-1.286-0.067H2.86l-0.01-0.001l-0.01-0.001
	L2.835,265.939z M38.865,8.442c-5.788,0.776-11.585,1.634-17.391,2.574c-5.666,0.917-11.38,1.921-17.14,3.01v185.772v64.803
	c0.335,0.01,0.707,0.015,1.114,0.015c9.235,0,17.593-3.596,23.64-9.41c6.04-5.807,9.776-13.829,9.776-22.689L38.865,8.442
	L38.865,8.442z M204.986,8.254c-13.63-1.797-27.265-3.148-40.902-4.053c-13.827-0.917-27.613-1.375-41.354-1.372v0.006h-0.192V2.829
	c-13.742-0.003-27.527,0.455-41.354,1.372C67.547,5.106,53.912,6.457,40.282,8.254v224.262c0,8.093-2.982,15.516-7.947,21.308
	v217.32c9.926,0.917,19.842,1.682,29.749,2.296c20.187,1.25,40.339,1.876,60.454,1.878h0.192
	c20.115-0.002,40.267-0.628,60.454-1.878c9.907-0.613,19.823-1.379,29.749-2.296v-217.32c-4.965-5.793-7.947-13.216-7.947-21.308
	L204.986,8.254L204.986,8.254z M240.934,264.601v-64.803V14.026c-5.759-1.089-11.474-2.093-17.14-3.01
	c-5.805-0.939-11.602-1.798-17.391-2.574v224.074c0,8.86,3.736,16.882,9.776,22.689c6.047,5.814,14.405,9.41,23.64,9.41
	C240.227,264.616,240.599,264.611,240.934,264.601z M243.768,199.797v63.886l1.5-0.169v1.584V469.23v1.252l-1.246,0.154
	c-20.201,2.498-40.426,4.374-60.672,5.627c-20.187,1.25-40.394,1.876-60.62,1.878h-0.192c-20.226-0.002-40.434-0.628-60.62-1.878
	c-20.246-1.254-40.471-3.129-60.672-5.627L0,470.482v-1.252V265.098v-1.584l1.5,0.169v-63.886V12.855v-1.17l1.151-0.22
	c6.079-1.16,12.207-2.241,18.38-3.24c6.115-0.989,12.236-1.891,18.359-2.703c13.902-1.844,27.774-3.226,41.616-4.145
	c13.827-0.917,27.672-1.375,41.532-1.372V0h0.192v0.006c13.86-0.003,27.704,0.455,41.532,1.372
	c13.841,0.918,27.714,2.3,41.616,4.145c6.123,0.812,12.244,1.714,18.359,2.703c6.174,0.999,12.301,2.079,18.38,3.24l1.151,0.22v1.17
	L243.768,199.797L243.768,199.797z"/>
<path d="M172.775,360.135c0-5.702-4.561-10.326-10.188-10.326s-10.188,4.623-10.188,10.326s4.561,10.326,10.188,10.326
	C168.213,370.461,172.775,365.838,172.775,360.135"/>
<path d="M93.06,360.135c0-5.702-4.561-10.326-10.188-10.326c-5.627,0-10.188,4.623-10.188,10.326s4.562,10.326,10.188,10.326
	C88.499,370.461,93.06,365.838,93.06,360.135"/>
<path d="M179.046,303.088c-14.415-14.609-34.326-23.646-56.316-23.646s-41.901,9.036-56.316,23.646
	c-14.407,14.603-23.319,34.773-23.319,57.048c0,22.275,8.911,42.445,23.319,57.048c14.415,14.61,34.326,23.646,56.316,23.646
	c21.991,0,41.902-9.036,56.316-23.646c14.408-14.603,23.32-34.772,23.32-57.048C202.366,337.861,193.454,317.691,179.046,303.088z
	 M190.688,371.258v25.426c-3.605,6.875-8.194,13.139-13.578,18.596c-13.915,14.103-33.142,22.827-54.38,22.827
	c-21.239,0-40.465-8.723-54.381-22.827c-5.384-5.457-9.973-11.72-13.578-18.596v-25.426h-8.177
	c-0.511-3.633-0.777-7.347-0.777-11.123c0-3.73,0.259-7.397,0.757-10.987h8.197v-25.562c3.605-6.875,8.194-13.139,13.578-18.596
	c13.915-14.103,33.141-22.827,54.38-22.827s40.465,8.723,54.38,22.827c5.386,5.458,9.974,11.721,13.579,18.596v25.562h8.197
	c0.499,3.589,0.758,7.258,0.758,10.987c0,3.776-0.266,7.49-0.777,11.123H190.688z"/>
<path d="M158.973,245.142c-0.057,0.995-0.085,1.982-0.085,2.961c0,0.643,0,1.282,0,1.917c0,0.635,0.01,1.274,0.029,1.913
	l-0.171,0.18c-0.967,0.329-1.873,0.543-2.718,0.643c-0.844,0.096-1.57,0.145-2.177,0.145c-1.48,0-2.775-0.222-3.885-0.666
	s-2.035-1.045-2.775-1.802c-0.74-0.757-1.29-1.634-1.651-2.629c-0.36-0.995-0.54-2.043-0.54-3.145c0-0.964,0.152-1.951,0.455-2.962
	c0.304-1.01,0.802-1.928,1.494-2.755c0.692-0.826,1.608-1.504,2.746-2.032s2.552-0.792,4.241-0.792c0.285,0,0.602,0.012,0.953,0.035
	c0.351,0.023,0.716,0.065,1.096,0.126c0.379,0.061,0.764,0.138,1.152,0.23s0.764,0.214,1.124,0.367l0.086,0.184
	c-0.019,0.138-0.038,0.271-0.057,0.402c-0.019,0.13-0.038,0.264-0.057,0.402c0,0.092-0.005,0.184-0.014,0.275
	c-0.01,0.092-0.014,0.176-0.014,0.253l-0.199,0.046c-0.474-0.352-1.053-0.624-1.736-0.815c-0.683-0.191-1.442-0.287-2.277-0.287
	c-1.044,0-1.945,0.126-2.704,0.379c-0.759,0.253-1.399,0.585-1.921,1.002c-0.522,0.413-0.944,0.884-1.267,1.412
	s-0.574,1.06-0.754,1.588s-0.299,1.037-0.355,1.527c-0.057,0.494-0.086,0.915-0.086,1.266c0,1.041,0.157,2.009,0.47,2.896
	c0.313,0.892,0.768,1.657,1.366,2.3c0.598,0.643,1.328,1.148,2.191,1.508c0.863,0.36,1.854,0.539,2.974,0.539
	c0.322,0,0.782-0.031,1.38-0.092c0.598-0.061,1.2-0.214,1.807-0.459c0-0.536,0.005-1.075,0.014-1.619
	c0.01-0.543,0.014-1.083,0.014-1.618c0-0.52-0.005-1.01-0.014-1.469s-0.023-0.903-0.042-1.332l0.142-0.115c0.171,0,0.318,0,0.441,0
	s0.242-0.004,0.356-0.012s0.232-0.015,0.356-0.023c0.123-0.008,0.28-0.011,0.469-0.011L158.973,245.142z M142.097,245.142
	c-0.057,0.995-0.085,1.982-0.085,2.961c0,0.643,0,1.282,0,1.917c0,0.635,0.009,1.274,0.028,1.913l-0.171,0.18
	c-0.968,0.329-1.874,0.543-2.718,0.643c-0.844,0.096-1.57,0.145-2.177,0.145c-1.48,0-2.775-0.222-3.885-0.666
	s-2.035-1.045-2.775-1.802c-0.74-0.757-1.29-1.634-1.651-2.629c-0.361-0.995-0.541-2.043-0.541-3.145
	c0-0.964,0.152-1.951,0.456-2.962c0.303-1.01,0.801-1.928,1.494-2.755c0.692-0.826,1.608-1.504,2.746-2.032s2.552-0.792,4.24-0.792
	c0.285,0,0.602,0.012,0.953,0.035c0.351,0.023,0.716,0.065,1.096,0.126c0.38,0.061,0.764,0.138,1.153,0.23s0.764,0.214,1.124,0.367
	l0.085,0.184c-0.019,0.138-0.038,0.271-0.057,0.402c-0.019,0.13-0.038,0.264-0.057,0.402c0,0.092-0.005,0.184-0.014,0.275
	c-0.009,0.092-0.014,0.176-0.014,0.253l-0.199,0.046c-0.474-0.352-1.053-0.624-1.736-0.815c-0.683-0.191-1.442-0.287-2.277-0.287
	c-1.043,0-1.945,0.126-2.704,0.379c-0.759,0.253-1.399,0.585-1.921,1.002c-0.522,0.413-0.944,0.884-1.266,1.412
	c-0.323,0.528-0.574,1.06-0.754,1.588s-0.299,1.037-0.356,1.527c-0.057,0.494-0.085,0.915-0.085,1.266
	c0,1.041,0.156,2.009,0.47,2.896c0.313,0.892,0.768,1.657,1.366,2.3c0.598,0.643,1.328,1.148,2.191,1.508
	c0.863,0.36,1.855,0.539,2.974,0.539c0.323,0,0.783-0.031,1.38-0.092c0.598-0.061,1.2-0.214,1.807-0.459
	c0-0.536,0.005-1.075,0.014-1.619c0.009-0.543,0.014-1.083,0.014-1.618c0-0.52-0.005-1.01-0.014-1.469
	c-0.01-0.459-0.024-0.903-0.043-1.332l0.142-0.115c0.171,0,0.318,0,0.441,0c0.124,0,0.242-0.004,0.356-0.012
	s0.232-0.015,0.356-0.023c0.123-0.008,0.28-0.011,0.47-0.011L142.097,245.142z M124.594,252.626c-0.38,0-0.669,0-0.868,0
	s-0.489,0.015-0.868,0.046l-0.171-0.138c0.019-0.429,0.033-0.788,0.043-1.079c0.009-0.29,0.014-0.558,0.014-0.803s0-0.497,0-0.758
	c0-0.26,0-0.589,0-0.987c0-0.245,0-0.593,0-1.044c0-0.452-0.005-0.96-0.014-1.527c-0.01-0.566-0.019-1.167-0.029-1.802
	c-0.009-0.635-0.019-1.251-0.028-1.848c-0.01-0.597-0.019-1.152-0.029-1.664c-0.009-0.513-0.014-0.938-0.014-1.274
	c-0.019-0.536-0.038-1.068-0.057-1.595c-0.019-0.528-0.047-1.06-0.085-1.596l0.142-0.138c0.36,0,0.645,0,0.854,0
	s0.512-0.015,0.911-0.046l0.171,0.138c-0.019,0.75-0.028,1.496-0.028,2.238s0,1.488,0,2.239c0,0.918,0,1.737,0,2.456
	s0.005,1.385,0.014,1.997s0.019,1.186,0.028,1.722c0.01,0.536,0.024,1.075,0.043,1.618s0.038,1.114,0.057,1.71
	c0.019,0.597,0.047,1.263,0.085,1.997L124.594,252.626z M118.077,236.51v0.367c0,0.413,0,0.872,0,1.377s-0.005,1.026-0.014,1.561
	c-0.009,0.536-0.014,1.056-0.014,1.561s0,0.964,0,1.378v2.984c-0.019,0.673-0.038,1.274-0.057,1.802s-0.071,1.002-0.157,1.423
	c-0.085,0.421-0.223,0.811-0.413,1.171c-0.19,0.359-0.455,0.715-0.797,1.068c-0.664,0.689-1.404,1.144-2.22,1.366
	s-1.622,0.333-2.419,0.333c-1.195,0-2.258-0.211-3.188-0.632s-1.632-1.067-2.106-1.94c-0.323-0.597-0.508-1.247-0.555-1.951
	c-0.047-0.704-0.062-1.469-0.043-2.296v-1.308v-5.487c0-0.352,0-0.639,0-0.861c0-0.222-0.005-0.421-0.014-0.597
	s-0.019-0.356-0.028-0.539c-0.009-0.184-0.014-0.429-0.014-0.735l0.142-0.138c0.204,0,0.375,0,0.517,0s0.27,0,0.394,0
	c0.118,0,0.247-0.004,0.379-0.012c0.128-0.008,0.289-0.019,0.474-0.034l0.171,0.138c-0.038,0.49-0.071,1.048-0.1,1.676
	c-0.028,0.628-0.052,1.462-0.071,2.503v5.464c0,0.75,0.024,1.377,0.071,1.883c0.048,0.505,0.147,0.957,0.299,1.354
	c0.266,0.704,0.707,1.263,1.324,1.676s1.437,0.62,2.462,0.62c0.512,0,1.02-0.069,1.522-0.207c0.503-0.138,0.963-0.39,1.38-0.758
	c0.342-0.291,0.602-0.624,0.783-0.999c0.18-0.375,0.313-0.804,0.399-1.286c0.085-0.482,0.137-1.037,0.156-1.664
	c0.019-0.628,0.028-1.347,0.028-2.158c0-1.347-0.009-2.69-0.028-4.029s-0.066-2.682-0.142-4.029l0.175-0.138
	c0.327,0,0.588,0,0.792,0s0.46-0.015,0.768-0.046L118.077,236.51z M100.688,244.51c0-1.274-0.157-2.387-0.47-3.344
	c-0.313-0.96-0.764-1.737-1.352-2.334c-0.323-0.321-0.65-0.589-0.982-0.796s-0.669-0.364-1.01-0.471
	c-0.342-0.107-0.669-0.18-0.982-0.218c-0.313-0.038-0.612-0.057-0.897-0.057c-0.892,0-1.655,0.134-2.291,0.402
	c-0.635,0.268-1.172,0.616-1.608,1.048c-0.436,0.429-0.787,0.911-1.053,1.447c-0.266,0.535-0.465,1.071-0.598,1.599
	s-0.223,1.025-0.27,1.492c-0.047,0.471-0.071,0.857-0.071,1.163c0,1.071,0.152,2.112,0.455,3.115
	c0.304,1.006,0.759,1.852,1.366,2.541c0.588,0.647,1.224,1.083,1.907,1.312c0.683,0.23,1.394,0.344,2.134,0.344
	c0.38,0,0.75-0.027,1.11-0.08c0.361-0.054,0.712-0.142,1.053-0.264c0.759-0.291,1.375-0.715,1.85-1.278
	c0.474-0.559,0.835-1.171,1.081-1.837c0.247-0.67,0.413-1.339,0.498-2.013C100.646,245.605,100.688,245.015,100.688,244.51z
	 M95.053,236.142c0.266,0,0.602,0.015,1.01,0.046c0.408,0.031,0.844,0.111,1.309,0.241s0.949,0.321,1.452,0.574
	c0.502,0.253,0.982,0.593,1.437,1.022c0.721,0.689,1.281,1.573,1.679,2.652s0.598,2.361,0.598,3.845
	c0,1.102-0.142,2.192-0.427,3.271s-0.844,2.062-1.679,2.95c-0.778,0.826-1.632,1.393-2.561,1.699s-1.926,0.459-2.988,0.459
	c-1.309,0-2.443-0.218-3.401-0.654s-1.75-1.037-2.377-1.802c-0.626-0.765-1.091-1.657-1.394-2.674
	c-0.304-1.018-0.455-2.116-0.455-3.294c0-1.209,0.161-2.326,0.484-3.352s0.811-1.905,1.466-2.64
	c0.654-0.735,1.465-1.308,2.433-1.722C92.606,236.349,93.744,236.142,95.053,236.142z"/>
<path d="M94.67,254.537c1.582,0,2.843,0.247,4.17,0.507c1.41,0.276,2.898,0.567,4.932,0.567v1.16c-2.14,0-3.687-0.303-5.154-0.59
	c-1.267-0.248-2.473-0.484-3.948-0.484V254.537z"/>
<rect x="83.733" y="47.037" width="0.567" height="11.005"/>
<rect x="83.733" y="47.037" stroke="#2B2A29" stroke-width="1.4173" stroke-miterlimit="22.9256" width="0.567" height="11.005"/>
<path d="M88.226,50.967c1.225,0.73,2.245,1.771,2.951,3.012c0.682,1.199,1.072,2.586,1.072,4.062c0,2.273-0.922,4.331-2.411,5.821
	c-1.489,1.489-3.548,2.411-5.821,2.411c-2.272,0-4.331-0.922-5.821-2.411c-1.489-1.489-2.411-3.548-2.411-5.821
	c0-1.478,0.391-2.866,1.074-4.067c0.708-1.243,1.73-2.285,2.959-3.014l0.288,0.487c-1.144,0.68-2.096,1.649-2.755,2.806
	c-0.636,1.116-0.999,2.409-0.999,3.788c0,2.117,0.858,4.033,2.245,5.42c1.387,1.387,3.303,2.245,5.42,2.245s4.033-0.858,5.42-2.245
	c1.387-1.387,2.245-3.303,2.245-5.42c0-1.377-0.362-2.668-0.996-3.783c-0.657-1.157-1.608-2.126-2.749-2.807L88.226,50.967z"/>
<path stroke="#2B2A29" stroke-width="1.4173" stroke-miterlimit="22.9256" d="M88.226,50.967c1.225,0.73,2.245,1.771,2.951,3.012
	c0.682,1.199,1.072,2.586,1.072,4.062c0,2.273-0.922,4.331-2.411,5.821c-1.489,1.489-3.548,2.411-5.821,2.411
	c-2.272,0-4.331-0.922-5.821-2.411c-1.489-1.489-2.411-3.548-2.411-5.821c0-1.478,0.391-2.866,1.074-4.067
	c0.708-1.243,1.73-2.285,2.959-3.014l0.288,0.487c-1.144,0.68-2.096,1.649-2.755,2.806c-0.636,1.116-0.999,2.409-0.999,3.788
	c0,2.117,0.858,4.033,2.245,5.42c1.387,1.387,3.303,2.245,5.42,2.245s4.033-0.858,5.42-2.245c1.387-1.387,2.245-3.303,2.245-5.42
	c0-1.377-0.362-2.668-0.996-3.783c-0.657-1.157-1.608-2.126-2.749-2.807L88.226,50.967z"/>
<circle cx="142.594" cy="58.042" r="1.078"/>
<circle stroke="#2B2A29" stroke-width="0.5669" stroke-miterlimit="22.9256" cx="142.594" cy="58.042" r="1.078"/>
<path d="M144.13,61.147c0.34-0.168,0.649-0.39,0.914-0.655c0.626-0.627,1.013-1.493,1.013-2.45s-0.387-1.823-1.013-2.45
	c-0.265-0.265-0.574-0.487-0.914-0.655l1.026-1.048c0.322,0.2,0.62,0.435,0.887,0.702l0.003,0.003
	c0.883,0.883,1.429,2.102,1.429,3.448c0,1.345-0.547,2.565-1.429,3.448l-0.003,0.003c-0.267,0.267-0.564,0.503-0.887,0.702
	L144.13,61.147z"/>
<path d="M147.477,64.568c0.311-0.233,0.605-0.488,0.88-0.763c1.475-1.475,2.388-3.513,2.388-5.763s-0.913-4.288-2.388-5.763
	c-0.275-0.275-0.568-0.53-0.88-0.763l0.999-1.021c0.31,0.242,0.605,0.503,0.884,0.781c1.731,1.731,2.803,4.124,2.803,6.765
	c0,2.642-1.071,5.034-2.803,6.766c-0.278,0.278-0.573,0.539-0.884,0.781L147.477,64.568z"/>
<path d="M150.773,67.936c0.312-0.258,0.612-0.531,0.898-0.817c2.323-2.323,3.761-5.533,3.761-9.077s-1.438-6.754-3.761-9.077
	c-0.286-0.286-0.586-0.559-0.898-0.817l0.994-1.016c0.314,0.264,0.616,0.541,0.906,0.831c2.58,2.58,4.176,6.144,4.176,10.08
	c0,3.935-1.596,7.5-4.176,10.08c-0.29,0.29-0.592,0.567-0.906,0.831L150.773,67.936z"/>
<path d="M180.059,52.094h-16.242c-1.051,0-2.008,0.431-2.702,1.125s-1.125,1.651-1.125,2.702v4.148c0,1.051,0.431,2.008,1.125,2.702
	s1.651,1.125,2.702,1.125h16.242c1.051,0,2.008-0.431,2.702-1.125s1.125-1.651,1.125-2.702v-4.148c0-1.051-0.431-2.008-1.125-2.702
	C182.068,52.525,181.111,52.094,180.059,52.094 M163.818,50.677h16.242c1.443,0,2.755,0.59,3.704,1.54
	c0.95,0.95,1.54,2.262,1.54,3.704v4.148c0,1.443-0.59,2.755-1.54,3.704c-0.95,0.95-2.261,1.54-3.704,1.54h-16.242
	c-1.443,0-2.755-0.59-3.704-1.54c-0.95-0.95-1.54-2.262-1.54-3.704v-4.148c0-1.443,0.59-2.755,1.54-3.704
	C161.063,51.267,162.375,50.677,163.818,50.677z"/>
<path d="M163.688,58.93h4.453h0.284v0.283v2.953v0.283h-0.284h-4.453h-0.283v-0.283v-2.953V58.93H163.688z M170.555,53.211h4.453
	h0.283v0.283v2.953v0.283h-0.283h-4.453h-0.283v-0.283v-2.953v-0.283H170.555z M163.688,53.211h4.453h0.284v0.283v2.953v0.283
	h-0.284h-4.453h-0.283v-0.283v-2.953v-0.283H163.688z M170.555,58.93h4.453h0.283v0.283v2.953v0.283h-0.283h-4.453h-0.283v-0.283
	v-2.953V58.93H170.555z"/>
</svg>
